# xmcd
#
# Track frame offsets:
# 150
# 11132
# 24113
# 36469
# 48103
# 59437
# 69897
# 80950
# 92782
# 103767
# 114641
# 128793
# 140947
# 151397
# 162467
# 173422
# 187272
# 199409
# 212663
# 224438
# 235879
# 246062
# 257984
# 269659
# 279760
# 290472
# 300835
# 312606
# 326008
# 339248
#
# Disc length: 4682 seconds
#
#
# Revision: 0
# Processed by: cddbd v1.5.2PL0 Copyright (c) Steve Scherf et al.
# Submitted via: FreeRIP 2.95 
#
DISCID=c812481e
DTITLE=Werner Overheit - Wenn ich dich verliere
DYEAR=2010
DGENRE=
TTITLE0=Hernandos Hideway
TTITLE1=Wenn ich dich verliere
TTITLE2=Ich sage dir Adieu
TTITLE3=Und es weht der Wind
TTITLE4=Ich such dich immer
TTITLE5=Sing, my little bird
TTITLE6=Warenhaus Rock
TTITLE7=Bei der Firma Rock 'n' Roll
TTITLE8=Baby, ich schieß dir einen Teddybär
TTITLE9=Hotel zur Einsamkeit
TTITLE10=Warte Blues (Ich zähle jetzt bis hundert noch)
TTITLE11=Meinen Ring gab ich ihr
TTITLE12=Midnight
TTITLE13=Und sowas geht nicht gut (Sie hatte Dynamit im Blut)
TTITLE14=My Baby, komm hast du heute frei?
TTITLE15=Ich hab Sehnsucht
TTITLE16=Wo ist der Mann?
TTITLE17=Schenk mir dein Herz
TTITLE18=Dule-Dule
TTITLE19=Liebling, gib mir einen Kuß
TTITLE20=Ich sah dich einmal
TTITLE21=Es ist immer, immer imer wieder schön
TTITLE22=Die Storry von uns zwein
TTITLE23=Rock-A-Baby
TTITLE24=Die Nacht ist so schön für die Liebe
TTITLE25=Küsse süßer als Wein
TTITLE26=Sweetheart, Sweetheart
TTITLE27=Unser Glück
TTITLE28=John McRollingway
TTITLE29=Crazy Daisy
EXTD=
EXTT0=
EXTT1=
EXTT2=
EXTT3=
EXTT4=
EXTT5=
EXTT6=
EXTT7=
EXTT8=
EXTT9=
EXTT10=
EXTT11=
EXTT12=
EXTT13=
EXTT14=
EXTT15=
EXTT16=
EXTT17=
EXTT18=
EXTT19=
EXTT20=
EXTT21=
EXTT22=
EXTT23=
EXTT24=
EXTT25=
EXTT26=
EXTT27=
EXTT28=
EXTT29=
PLAYORDER=
